<svg xmlns="http://www.w3.org/2000/svg" width="256" height="256" viewBox="0 0 256 256" role="img" aria-label="MT System favicon">
  <defs>
    <linearGradient id="bg" x1="0" y1="0" x2="1" y2="1">
      <stop offset="0%" stop-color="#2e281f" />
      <stop offset="100%" stop-color="#191611" />
    </linearGradient>
    <filter id="shadow" x="-20%" y="-20%" width="140%" height="140%">
      <feDropShadow dx="0" dy="10" stdDeviation="12" flood-color="#000000" flood-opacity="0.18" />
    </filter>
  </defs>

  <rect x="16" y="16" width="224" height="224" rx="64" fill="url(#bg)" filter="url(#shadow)" />

  <path d="M78 178 178 78" stroke="#b88a49" stroke-width="12" stroke-linecap="round" />

  <g fill="none" stroke="#f6efe3" stroke-width="12" stroke-linecap="round" stroke-linejoin="round">
    <path
      d="M116 52a28 28 0 0 0-37.8 37.1L56 111.3v21.2h21.2l22.2-22.2A28 28 0 0 0 136.5 72l-16.1 16.1-14-2.6-2.6-14L116 52Z"
    />

    <path d="M133 147 176 117l42 30" />
    <rect x="138" y="145" width="76" height="52" rx="10" />
    <path d="M160 163h32M160 179h32" />
  </g>
</svg>
